<svg width="68" height="28" viewBox="0 0 68 28" fill="none" xmlns="http://www.w3.org/2000/svg">
<g clip-path="url(#clip0_60_153)">
<path d="M1.0481 8.79034L6.36668 1.34879C6.90046 0.601939 8.07422 0.908732 8.17429 1.82125L9.85904 17.1851C9.91465 17.6921 10.343 18.0761 10.8531 18.0761H15.5999C16.1176 18.0761 16.5497 17.681 16.5959 17.1653L17.0766 11.8039C17.1821 10.6263 18.884 10.5743 19.0613 11.7432L20.539 21.488C20.712 22.6285 22.3593 22.6183 22.5182 21.4758L23.4903 14.4852C23.6531 13.3145 25.3547 13.345 25.4755 14.5207L26.635 25.8052C26.7505 26.9293 28.3498 27.029 28.6041 25.928L29.574 21.7289C29.592 21.6511 29.6193 21.5757 29.6552 21.5044L32.3206 16.2096C32.7384 15.3797 33.9632 15.5184 34.1849 16.4205L35.6986 22.579C35.7895 22.9489 36.0827 23.2351 36.4547 23.317L38.9523 23.8668C39.2459 23.9314 39.5529 23.8606 39.7885 23.6739L42.1285 21.8194C42.2985 21.6847 42.4201 21.4982 42.4749 21.2883L44.615 13.0908C44.8569 12.1641 46.1376 12.0749 46.5057 12.959L48.022 16.6004C48.3059 17.2823 49.2057 17.4316 49.6947 16.878L50.4199 16.0569C50.6097 15.842 50.8827 15.7189 51.1694 15.7189H54.9443C55.2761 15.7189 55.5846 15.8891 55.7617 16.1697C56.2149 16.8881 57.3081 16.7142 57.516 15.8905L58.2609 12.9385C58.373 12.4944 58.7725 12.1832 59.2305 12.1832H60.0691C60.5191 12.1832 60.9137 11.8825 61.0332 11.4486L62.8251 4.93999C63.011 4.26452 63.816 3.98472 64.3808 4.3992L65.5749 5.27546C65.7759 5.4229 65.9145 5.64006 65.9637 5.88439L66.8503 10.2903" stroke="#48D49E" stroke-linecap="round"/>
</g>
<defs>
<clipPath id="clip0_60_153">
<rect width="66.8022" height="26.7746" fill="white" transform="translate(0.548096 0.428589)"/>
</clipPath>
</defs>
</svg>
