<svg width="67" height="27" viewBox="0 0 67 27" fill="none" xmlns="http://www.w3.org/2000/svg">
<g clip-path="url(#clip0_60_159)">
<path d="M0.5 8.36163L5.81858 0.920075C6.35236 0.173228 7.52613 0.480021 7.62619 1.39254L9.31095 16.7564C9.36655 17.2634 9.79489 17.6473 10.305 17.6473H15.0518C15.5695 17.6473 16.0016 17.2522 16.0479 16.7366L16.5285 11.3752C16.634 10.1976 18.3359 10.1456 18.5132 11.3145L19.9909 21.0593C20.1639 22.1998 21.8112 22.1896 21.9701 21.0471L22.9422 14.0564C23.105 12.8858 24.8066 12.9163 24.9274 14.092L26.0869 25.3764C26.2024 26.5005 27.8017 26.6003 28.056 25.4993L29.0259 21.3002C29.0439 21.2224 29.0712 21.147 29.1071 21.0756L31.7725 15.7808C32.1903 14.951 33.4151 15.0896 33.6368 15.9918L35.1505 22.1503C35.2414 22.5202 35.5346 22.8064 35.9066 22.8883L38.4043 23.4381C38.6978 23.5027 39.0048 23.4319 39.2404 23.2452L41.5804 21.3907C41.7504 21.2559 41.872 21.0695 41.9268 20.8596L44.0669 12.6621C44.3088 11.7354 45.5895 11.6462 45.9576 12.5303L47.4739 16.1717C47.7578 16.8536 48.6576 17.0029 49.1466 16.4493L49.8718 15.6282C50.0616 15.4133 50.3346 15.2902 50.6213 15.2902H54.3962C54.728 15.2902 55.0365 15.4604 55.2136 15.7409C55.6669 16.4594 56.76 16.2855 56.9679 15.4618L57.7128 12.5098C57.8249 12.0657 58.2244 11.7545 58.6824 11.7545H59.521C59.971 11.7545 60.3656 11.4538 60.4851 11.0199L62.277 4.51128C62.4629 3.83581 63.2679 3.55601 63.8327 3.97049L65.0268 4.84675C65.2278 4.99419 65.3664 5.21135 65.4156 5.45568L66.3022 9.86163" stroke="#48D49E" stroke-linecap="round"/>
</g>
<defs>
<clipPath id="clip0_60_159">
<rect width="66.8022" height="26.7745" fill="white"/>
</clipPath>
</defs>
</svg>
