<svg width="69" height="20" viewBox="0 0 69 20" fill="none" xmlns="http://www.w3.org/2000/svg">
<g clip-path="url(#clip0_60_155)">
<path d="M1.00011 4.01995L5.45665 14.414C5.61427 14.7816 5.97576 15.02 6.37573 15.02H8.06757H9.668C10.126 15.02 10.5255 14.7088 10.6376 14.2646L11.3826 11.3127C11.5904 10.489 12.6836 10.315 13.1369 11.0335C13.3139 11.3141 13.6225 11.4842 13.9542 11.4842H17.7291C18.0159 11.4842 18.2888 11.3612 18.4786 11.1462L19.2039 10.3251C19.6929 9.77155 20.5926 9.92088 20.8766 10.6028L22.3928 14.2441C22.761 15.1283 24.0416 15.039 24.2835 14.1123L26.4236 5.91486C26.4784 5.70492 26.6 5.5185 26.7701 5.38373L29.1101 3.52925C29.3456 3.34257 29.6527 3.27174 29.9462 3.33635L32.4439 3.88619C32.8159 3.96809 33.109 4.25422 33.2 4.62413L34.7136 10.7826C34.9353 11.6848 36.1602 11.8234 36.5779 10.9936L39.2434 5.6988C39.2793 5.62745 39.3065 5.55204 39.3245 5.47421L40.2944 1.27516C40.5487 0.174136 42.148 0.273905 42.2635 1.39801L43.423 12.6825C43.5438 13.8582 45.2455 13.8886 45.4083 12.718L46.3804 5.72738C46.5392 4.58482 48.1866 4.57467 48.3595 5.71518L49.8373 15.4599C50.0145 16.6288 51.7164 16.5768 51.822 15.3993L52.3026 10.0378C52.3488 9.5222 52.7809 9.1271 53.2986 9.1271H58.1015C58.5873 9.1271 59.0029 9.47627 59.0865 9.95484L60.3298 17.0645C60.4825 17.9378 61.612 18.1952 62.128 17.4742L63.2144 15.9564C63.5684 15.462 64.278 15.3952 64.7179 15.8149L68.4888 19.4128" stroke="#FF8266" stroke-linecap="round"/>
</g>
<defs>
<clipPath id="clip0_60_155">
<rect width="68.4888" height="19.9128" fill="white" transform="translate(0.5)"/>
</clipPath>
</defs>
</svg>
